<?xml version="1.0" encoding="utf-8"?>
<!-- Generator: Adobe Illustrator 23.0.0, SVG Export Plug-In . SVG Version: 6.00 Build 0)  -->
<svg version="1.1" id="图层_1" xmlns="http://www.w3.org/2000/svg" xmlns:xlink="http://www.w3.org/1999/xlink" x="0px" y="0px"
	 viewBox="0 0 1920 592" style="enable-background:new 0 0 1920 592;" xml:space="preserve">
<style type="text/css">
	.st0{fill:#F4F4F4;}
</style>
<g>
	<g>
		<path class="st0" d="M883.38,453.82v21.32c0,10.8-8.75,19.55-19.55,19.55H726.99c-50.95,0-76.41-23.69-76.41-71.09v-220.4
			c0-50.93,26.66-76.43,79.97-76.43h133.28c10.8,0,19.55,8.75,19.55,19.55v24.88c0,10.8-8.75,19.55-19.55,19.55h-85.3
			c-34.38,2.39-53.31,19.55-56.87,51.54v172.41c0,10.8,8.75,19.55,19.55,19.55h122.62C874.62,434.27,883.38,443.03,883.38,453.82z"
			/>
		<path class="st0" d="M1104.31,140.81l96.88,328.81c3.69,12.53-5.7,25.08-18.75,25.08h-32.62c-8.41,0-15.89-5.39-18.55-13.37
			l-13.32-39.95c-9.5-22.49-27.85-34.93-55.09-37.33h-50.84c-8.8,0-16.52,5.89-18.85,14.38l-16.99,61.89
			c-2.33,8.49-10.05,14.38-18.85,14.38h-33.59c-13.06,0-22.44-12.56-18.75-25.08l96.88-328.81c2.45-8.32,10.08-14.03,18.75-14.03
			h64.94C1094.23,126.78,1101.86,132.49,1104.31,140.81z M1038.98,340.07h29.99c12.98,0,22.35-12.41,18.81-24.89l-15-52.82
			c-5.38-18.95-32.23-18.95-37.61,0l-15,52.82C1016.63,327.66,1026,340.07,1038.98,340.07z"/>
		<path class="st0" d="M1444.94,146.33v24.88c0,10.8-8.75,19.55-19.55,19.55h-37.31c-10.8,0-19.55,8.75-19.55,19.55v264.82
			c0,10.8-8.75,19.55-19.55,19.55h-37.31c-10.8,0-19.55-8.75-19.55-19.55V238.76c-2.39-29.6-21.32-45.59-56.86-47.98l0,0
			c-10.8,0-19.55-8.75-19.55-19.55v-24.88c0-10.8,8.75-19.55,19.55-19.55h190.14C1436.18,126.78,1444.94,135.53,1444.94,146.33z"/>
		<path class="st0" d="M1655.21,140.81l96.88,328.81c3.69,12.53-5.7,25.08-18.75,25.08h-32.62c-8.41,0-15.89-5.39-18.55-13.37
			l-13.32-39.95c-9.5-22.49-27.85-34.93-55.09-37.33h-50.84c-8.8,0-16.52,5.89-18.85,14.38l-16.99,61.89
			c-2.33,8.49-10.05,14.38-18.85,14.38h-33.59c-13.06,0-22.44-12.56-18.75-25.08l96.88-328.81c2.45-8.32,10.08-14.03,18.75-14.03
			h64.94C1645.13,126.78,1652.76,132.49,1655.21,140.81z M1589.87,340.07h29.99c12.98,0,22.35-12.41,18.81-24.89l-15-52.82
			c-5.38-18.95-32.23-18.95-37.61,0l-15,52.82C1567.52,327.66,1576.9,340.07,1589.87,340.07z"/>
		<path class="st0" d="M1859,146.33v328.81c0,10.8-8.75,19.55-19.55,19.55h-33.76c-10.8,0-19.55-8.75-19.55-19.55V146.33
			c0-10.8,8.75-19.55,19.55-19.55h33.76C1850.25,126.78,1859,135.53,1859,146.33z"/>
	</g>
	<path class="st0" d="M341.87,465.12 M335.61,471.09"/>
</g>
<path class="st0" d="M422.55,132.56l-75.52,56.99c-6.01,4.53-13.32,6.98-20.85,6.98H208.27c-7.52,0-14.84-2.45-20.85-6.98
	l-75.52-56.99c-22.8-17.21-55.46-0.94-55.46,27.63v141.31c0,3.32,0.1,6.62,0.25,9.9c0.04,0.94,0.11,1.87,0.17,2.8
	c0.14,2.4,0.32,4.79,0.54,7.16c0.1,1.03,0.2,2.06,0.31,3.09c0.26,2.43,0.58,4.84,0.92,7.25c0.12,0.83,0.22,1.66,0.35,2.49
	c0.5,3.17,1.05,6.33,1.69,9.46c0.12,0.57,0.26,1.14,0.38,1.71c0.54,2.52,1.11,5.03,1.73,7.52c0.28,1.12,0.59,2.24,0.89,3.35
	c0.52,1.94,1.07,3.87,1.64,5.78c0.36,1.21,0.73,2.42,1.11,3.62c0.61,1.9,1.25,3.78,1.91,5.65c0.39,1.1,0.75,2.22,1.16,3.32
	c1,2.7,2.05,5.36,3.16,8.01c0.56,1.35,1.17,2.67,1.76,4c0.64,1.45,1.28,2.89,1.95,4.32c0.69,1.46,1.39,2.91,2.11,4.35
	c0.63,1.26,1.27,2.51,1.92,3.75c0.78,1.48,1.55,2.97,2.37,4.43c0.63,1.14,1.29,2.25,1.94,3.38c1.62,2.8,3.3,5.56,5.05,8.28
	c0.62,0.97,1.22,1.95,1.86,2.9c0.96,1.45,1.97,2.87,2.96,4.29c0.47,0.67,0.91,1.35,1.39,2.01l0.03-0.02
	c2.54,3.54,5.17,7.02,7.92,10.39l-0.03,0.02c0.19,0.23,0.38,0.44,0.57,0.67c0.31,0.38,0.64,0.74,0.95,1.11
	c1.34,1.59,2.67,3.18,4.05,4.73l0.03-0.02c3.14,3.54,6.38,6.98,9.75,10.3c1.88,1.87,3.77,3.73,5.73,5.52l0.04-0.02
	c3.4,3.11,6.93,6.08,10.53,8.97l-0.04,0.02c1.14,0.91,2.32,1.78,3.48,2.67c0.93,0.71,1.84,1.44,2.78,2.13
	c2.41,1.79,4.86,3.53,7.34,5.22c0.11,0.07,0.21,0.15,0.32,0.22c2.67,1.8,5.38,3.53,8.13,5.21c0.62,0.38,1.25,0.73,1.88,1.1
	c2.16,1.29,4.35,2.56,6.56,3.77c0.74,0.4,1.48,0.79,2.22,1.19c2.18,1.17,4.39,2.3,6.62,3.39c0.69,0.34,1.38,0.67,2.08,1
	c2.43,1.16,4.89,2.27,7.38,3.34c0.48,0.2,0.95,0.41,1.43,0.62c25.08,10.55,52.62,16.42,81.54,16.42h0
	c28.92,0,56.46-5.87,81.54-16.42c0.48-0.2,0.95-0.41,1.43-0.62c2.48-1.07,4.94-2.18,7.38-3.34c0.7-0.33,1.39-0.66,2.08-1
	c2.23-1.09,4.43-2.22,6.62-3.39c0.74-0.4,1.49-0.78,2.22-1.19c2.21-1.22,4.4-2.48,6.56-3.77c0.62-0.37,1.26-0.73,1.88-1.1
	c2.75-1.68,5.47-3.41,8.13-5.21c0.11-0.07,0.21-0.15,0.32-0.22c2.49-1.69,4.93-3.43,7.34-5.22c0.94-0.7,1.85-1.42,2.78-2.13
	c1.16-0.89,2.34-1.76,3.48-2.67l-0.04-0.02c9.37-7.51,18.08-15.79,26.04-24.77l0.03,0.02c1.38-1.55,2.71-3.14,4.05-4.73
	c0.31-0.38,0.64-0.74,0.95-1.11c0.19-0.23,0.39-0.44,0.57-0.67l-0.03-0.02c2.75-3.37,5.38-6.85,7.92-10.39l0.03,0.02
	c0.47-0.66,0.92-1.34,1.39-2.01c1-1.42,2-2.85,2.96-4.29c0.64-0.96,1.24-1.93,1.86-2.9c1.75-2.72,3.43-5.48,5.05-8.28
	c0.65-1.12,1.31-2.24,1.94-3.38c0.81-1.46,1.59-2.95,2.37-4.43c0.65-1.24,1.29-2.49,1.92-3.75c0.72-1.44,1.43-2.89,2.11-4.35
	c0.67-1.43,1.31-2.87,1.95-4.32c0.59-1.33,1.2-2.66,1.76-4c1.1-2.64,2.16-5.31,3.16-8.01c0.41-1.1,0.77-2.21,1.16-3.32
	c0.66-1.87,1.3-3.75,1.91-5.65c0.38-1.2,0.75-2.41,1.11-3.62c0.57-1.92,1.12-3.84,1.64-5.78c0.3-1.12,0.6-2.23,0.89-3.35
	c0.62-2.49,1.2-4.99,1.73-7.52c0.12-0.57,0.26-1.13,0.38-1.71c0.64-3.13,1.19-6.28,1.69-9.46c0.13-0.83,0.23-1.66,0.35-2.49
	c0.35-2.4,0.66-4.82,0.92-7.25c0.11-1.03,0.21-2.06,0.31-3.09c0.22-2.38,0.4-4.76,0.54-7.16c0.06-0.93,0.12-1.86,0.17-2.8
	c0.15-3.28,0.25-6.58,0.25-9.9V160.19C478.01,131.62,445.36,115.35,422.55,132.56z"/>
</svg>
