<?xml version="1.0" encoding="UTF-8"?>
<!DOCTYPE svg PUBLIC "-//W3C//DTD SVG 1.1//EN" "http://www.w3.org/Graphics/SVG/1.1/DTD/svg11.dtd">
<!-- Creator: CorelDRAW X6 -->
<svg xmlns="http://www.w3.org/2000/svg" xml:space="preserve" width="380.836mm" height="50.329mm" version="1.1" style="shape-rendering:geometricPrecision; text-rendering:geometricPrecision; image-rendering:optimizeQuality; fill-rule:evenodd; clip-rule:evenodd"
viewBox="0 0 44760 5915"
 xmlns:xlink="http://www.w3.org/1999/xlink">
 <defs>
  <style type="text/css">
   <![CDATA[
    .fil1 {fill:#333333}
    .fil0 {fill:#333333;fill-rule:nonzero}
   ]]>
  </style>
 </defs>
 <g id="图层_x0020_1">
  <metadata id="CorelCorpID_0Corel-Layer"/>
  <path class="fil0" d="M26108 3239l0 2450 -834 0 0 -3139 888 0 162 0 22 0 290 0c284,-9 554,-113 626,-165 154,-110 232,-304 232,-583 0,-301 -83,-513 -249,-637 -166,-124 -473,-185 -921,-185l-162 0 -888 4 0 -770 1240 0c364,0 646,24 847,71 200,47 371,125 513,235 170,133 300,304 393,513 92,209 138,438 138,688 0,438 -106,781 -318,1030 -212,248 -524,397 -938,447l1883 2491 -1003 0 -1822 -2450 -100 0z"/>
  <polygon class="fil0" points="20737,972 20737,214 23792,214 23792,972 21625,972 "/>
  <polygon class="fil0" points="20737,5689 20737,2343 21625,2343 23792,2343 23792,3124 21625,3124 21625,4892 23792,4892 23792,5689 "/>
  <polygon class="fil0" points="17580,3131 18802,214 19722,214 18471,3131 "/>
  <polygon class="fil0" points="16091,3131 14838,214 15763,214 16989,3131 "/>
  <polygon class="fil0" points="13761,5689 13340,4734 13341,4734 12698,3268 12055,1803 11411,3268 10831,4591 10336,5689 9402,5689 12052,0 14700,5689 "/>
  <polygon class="fil0" points="6082,5689 6082,214 6970,214 6970,4892 8961,4892 8961,5689 "/>
  <polygon class="fil0" points="3452,5689 3452,214 4340,214 4340,5689 "/>
  <polygon class="fil1" points="17232,5915 17556,5169 17881,4423 17232,4423 16583,4423 16907,5169 "/>
  <path class="fil0" d="M31910 2552l0 3214 3472 0 0 -1219 -1814 0 0 -777 400 0 -213 659 1626 0 0 -1878 -3472 0zm6092 -2320l-1284 0 0 4992 -432 559 1717 0 0 -5552zm-2465 0l0 5552 574 0 426 -571 0 -4981 -1000 0zm-1433 2190l607 -2190 -2252 0 -561 2190 2207 0zm1278 0l-549 -2190 -594 2190 1142 0zm8403 3373l0 -288 975 0 0 -1124 -975 0 0 -159 975 0 0 -1124 -975 0 0 -141 -2078 0 0 141 -981 0 0 1124 981 0 0 159 -981 0 0 1124 981 0 0 288 2078 0zm-3059 -5581l0 1295 574 359 -574 359 0 630 1613 0 413 -235 419 235 1581 0 0 -630 -581 -359 587 -359 0 -1295 -4034 0zm-2091 2920l200 0 0 2661 1801 0 0 -1283 -207 183 0 -2726 -1794 0 0 1166zm878 -2920c-465,0 -865,365 -865,812 0,430 400,795 865,795 503,0 897,-365 897,-795 0,-447 -394,-812 -897,-812zm3246 1213l-503 -353 1007 0 -503 353z"/>
  <polygon class="fil1" points="1679,4631 0,2952 1679,1272 "/>
 </g>
</svg>
