<?xml version="1.0" encoding="UTF-8"?>
<!DOCTYPE svg PUBLIC "-//W3C//DTD SVG 1.1//EN" "http://www.w3.org/Graphics/SVG/1.1/DTD/svg11.dtd">
<!-- Creator: CorelDRAW X6 -->
<svg xmlns="http://www.w3.org/2000/svg" xml:space="preserve" width="72.2701mm" height="72.8901mm" version="1.1" style="shape-rendering:geometricPrecision; text-rendering:geometricPrecision; image-rendering:optimizeQuality; fill-rule:evenodd; clip-rule:evenodd"
viewBox="0 0 198 200"
 xmlns:xlink="http://www.w3.org/1999/xlink">
 <defs>
  <style type="text/css">
   <![CDATA[
    .fil0 {fill:black;fill-rule:nonzero}
   ]]>
  </style>
 </defs>
 <g id="图层_x0020_1">
  <metadata id="CorelCorpID_0Corel-Layer"/>
  <path class="fil0" d="M6 0l185 0c4,0 6,3 6,6l0 155c0,11 -4,20 -11,27 -7,7 -17,11 -27,11l-153 0c-4,0 -6,-3 -6,-6l0 -187c0,-4 3,-6 6,-6zm179 13l-172 0 0 174 132 0 0 6c0,4 3,6 6,6 4,0 6,-3 6,-6l0 -6 2 0c7,0 13,-3 18,-8 4,-4 6,-9 7,-14l6 0c4,0 6,-3 6,-6 0,-4 -3,-6 -6,-6l-6 0 0 -139z"/>
  <path class="fil0" d="M28 22l55 0c4,0 6,3 6,6l0 58c0,4 -3,6 -6,6l-55 0c-4,0 -6,-3 -6,-6l0 -58c0,-4 3,-6 6,-6zm49 13l-42 0 0 45 42 0 0 -45z"/>
  <path class="fil0" d="M162 32c4,0 6,3 6,6 0,4 -3,6 -6,6l-56 0c-4,0 -6,-3 -6,-6 0,-4 3,-6 6,-6l56 0z"/>
  <path class="fil0" d="M162 67c4,0 6,3 6,6 0,4 -3,6 -6,6l-56 0c-4,0 -6,-3 -6,-6 0,-4 3,-6 6,-6l56 0z"/>
  <path class="fil0" d="M162 112c4,0 6,3 6,6 0,4 -3,6 -6,6l-135 0c-4,0 -6,-3 -6,-6 0,-4 3,-6 6,-6l135 0z"/>
  <path class="fil0" d="M136 159c4,0 6,3 6,6 0,4 -3,6 -6,6l-108 0c-4,0 -6,-3 -6,-6 0,-4 3,-6 6,-6l108 0z"/>
  <path class="fil0" d="M157 193c0,4 -3,6 -6,6 -4,0 -6,-3 -6,-6l0 -34c0,-4 3,-6 6,-6l0 0 40 0c4,0 6,3 6,6 0,4 -3,6 -6,6l-33 0 0 28z"/>
  <path class="fil0" d="M58 45c2,-3 6,-3 9,0 3,2 3,6 0,9l-16 16c-2,3 -6,3 -9,0 -3,-2 -3,-6 0,-9l16 -16z"/>
  <path class="fil0" d="M68 61c2,3 2,7 0,9 -3,2 -7,2 -9,0l-16 -16c-2,-3 -2,-7 0,-9 3,-2 7,-2 9,0l16 16z"/>
 </g>
</svg>
