<?xml version="1.0" encoding="UTF-8"?>
<!DOCTYPE svg PUBLIC "-//W3C//DTD SVG 1.1//EN" "http://www.w3.org/Graphics/SVG/1.1/DTD/svg11.dtd">
<!-- Creator: CorelDRAW X6 -->
<svg xmlns="http://www.w3.org/2000/svg" xml:space="preserve" width="123.358mm" height="124.417mm" version="1.1" style="shape-rendering:geometricPrecision; text-rendering:geometricPrecision; image-rendering:optimizeQuality; fill-rule:evenodd; clip-rule:evenodd"
viewBox="0 0 909 917"
 xmlns:xlink="http://www.w3.org/1999/xlink">
 <defs>
  <style type="text/css">
   <![CDATA[
    .str0 {stroke:black;stroke-width:58.936;stroke-linecap:round;stroke-linejoin:round}
    .fil0 {fill:none}
   ]]>
  </style>
 </defs>
 <g id="图层_x0020_1">
  <metadata id="CorelCorpID_0Corel-Layer"/>
  <path class="fil0 str0" d="M29 29l850 0 0 710c0,81 -66,147 -147,147l-703 0 0 -858z"/>
  <polyline class="fil0 str0" points="679,887 680,729 863,729 "/>
  <g id="_860208400">
   <polyline class="fil0 str0" points="339,255 206,712 661,600 "/>
   <line class="fil0 str0" x1="465" y1="399" x2="339" y2= "255" />
   <line class="fil0 str0" x1="449" y1="514" x2="465" y2= "399" />
   <polyline class="fil0 str0" points="661,600 527,477 449,514 206,712 "/>
  </g>
  <g id="_860208592">
   <line class="fil0 str0" x1="463" y1="255" x2="520" y2= "199" />
   <line class="fil0 str0" x1="581" y1="285" x2="637" y2= "228" />
   <line class="fil0 str0" x1="639" y1="357" x2="696" y2= "301" />
   <line class="fil0 str0" x1="665" y1="471" x2="722" y2= "414" />
  </g>
 </g>
</svg>
